<svg width="1000" height="1000" viewBox="0 0 1000 1000" fill="none" xmlns="http://www.w3.org/2000/svg">
<rect width="1000" height="1000" fill="#1A1C1E"/>
<path fill-rule="evenodd" clip-rule="evenodd" d="M153.116 451.817C153.116 455.153 153.032 458.406 152.865 461.576V682.033H220.679V507.619C226.184 498.944 232.774 489.602 240.448 479.593C248.122 469.417 256.546 459.324 265.721 449.314C275.064 439.305 284.99 429.713 295.499 420.537C306.009 411.195 316.769 402.937 327.78 395.764C338.957 388.591 350.134 382.919 361.311 378.748C372.655 374.411 383.749 372.242 394.593 372.242C403.267 372.242 411.358 374.077 418.865 377.747C426.539 381.25 433.129 387.173 438.634 395.514C444.306 403.688 448.727 414.532 451.896 428.044C455.233 441.39 456.901 457.906 456.901 477.591V681.783H524.715V611.045C528.248 615.624 532.071 620.269 536.185 624.98C546.528 636.824 559.04 647.668 573.72 657.51C588.401 667.353 605.417 675.444 624.768 681.783C644.12 688.122 666.141 691.292 690.831 691.292C705.344 691.292 720.358 689.707 735.873 686.537C751.387 683.368 766.735 678.363 781.916 671.523C797.097 664.683 811.778 655.925 825.958 645.249C840.304 634.405 853.483 621.393 865.495 606.212L822.454 565.674C813.446 577.351 803.937 587.444 793.927 595.952C783.918 604.293 773.575 611.133 762.898 616.471C752.221 621.643 741.378 625.48 730.368 627.982C719.524 630.485 708.681 631.736 697.837 631.736C683.824 631.736 669.644 629.651 655.297 625.48C640.95 621.309 627.354 615.387 614.509 607.713C601.83 599.873 590.403 590.53 580.227 579.687C570.217 568.843 562.543 556.749 557.205 543.403H578.975H607.002C618.513 543.236 631.608 542.986 646.289 542.652C660.969 542.152 674.899 541.735 688.078 541.401C701.424 540.9 713.185 540.483 723.361 540.15L729.867 539.9C736.206 539.566 744.047 538.982 753.389 538.148C762.731 537.314 772.574 535.646 782.917 533.143C793.427 530.474 803.853 526.804 814.196 522.133C824.539 517.462 833.798 511.206 841.973 503.365C850.314 495.524 857.07 485.849 862.242 474.338C867.413 462.66 869.999 448.73 869.999 432.549C869.999 422.706 867.997 412.697 863.993 402.52C860.156 392.177 854.651 382.251 847.478 372.742C840.304 363.233 831.546 354.392 821.203 346.217C811.027 337.876 799.599 330.703 786.921 324.697C774.242 318.525 760.98 313.937 747.133 310.934C733.287 307.765 719.274 306.18 705.094 306.18H698.588C678.903 306.68 660.218 309.433 642.535 314.438C624.852 319.275 608.42 325.865 593.239 334.206C578.058 342.547 564.212 352.307 551.7 363.484C539.188 374.661 528.261 386.756 518.919 399.768C518.137 400.877 517.367 401.992 516.61 403.111C514.458 392.395 511.488 382.856 507.699 374.494C502.861 363.65 497.189 354.308 490.683 346.468C484.177 338.627 477.003 332.204 469.163 327.2C461.322 322.028 453.231 317.941 444.89 314.938C436.549 311.768 428.124 309.6 419.616 308.432C411.108 307.264 402.934 306.68 395.093 306.68C387.419 306.68 380.162 307.181 373.323 308.182C366.65 309.016 360.894 310.017 356.056 311.184C344.045 314.187 332.534 318.441 321.524 323.946C310.68 329.452 300.504 335.624 290.995 342.464C281.486 349.304 272.728 356.477 264.721 363.984C256.88 371.491 249.79 378.665 243.451 385.504C237.111 392.177 231.689 398.266 227.185 403.772C222.681 409.11 219.178 413.197 216.675 416.033C216.675 403.688 215.091 391.76 211.921 380.249C208.918 368.572 204.747 357.895 199.409 348.219C194.238 338.377 188.232 329.785 181.392 322.445C174.552 314.938 167.462 309.266 160.122 305.429L128.843 365.736C132.847 367.904 136.433 372.325 139.603 378.998C142.773 385.504 145.358 393.345 147.36 402.52C149.529 411.529 151.03 420.37 151.864 429.045C152.699 437.553 153.116 445.144 153.116 451.817ZM746.883 372.492C761.397 377.831 774.659 386.339 786.671 398.016C797.514 408.693 802.936 420.204 802.936 432.549C802.936 440.222 801.351 446.979 798.181 452.818C795.179 458.49 790.174 463.328 783.167 467.331C776.161 471.168 766.902 474.254 755.391 476.59C743.88 478.926 729.7 480.677 712.851 481.845L709.098 482.095C699.088 482.762 687.911 483.346 675.566 483.847C663.221 484.18 650.126 484.514 636.279 484.848C622.6 485.015 610.922 485.181 601.246 485.348H579.726C570.217 485.348 560.708 485.265 551.199 485.098C554.536 467.081 561.042 450.732 570.718 436.052C580.56 421.205 592.321 408.526 606.001 398.016C619.847 387.339 635.028 379.082 651.544 373.243C668.226 367.404 684.992 364.485 701.841 364.485C717.522 364.485 732.536 367.154 746.883 372.492Z" fill="url(#paint0_linear_15_117)"/>
<defs>
<linearGradient id="paint0_linear_15_117" x1="204.039" y1="525.996" x2="838.797" y2="553.613" gradientUnits="userSpaceOnUse">
<stop stop-color="#AFE754"/>
<stop offset="1" stop-color="#08926B"/>
</linearGradient>
</defs>
</svg>
